<?xml version="1.0" encoding="UTF-8" standalone="no"?>
<!-- Created with Inkscape (http://www.inkscape.org/) -->

<svg
   xmlns:dc="http://purl.org/dc/elements/1.1/"
   xmlns:cc="http://creativecommons.org/ns#"
   xmlns:rdf="http://www.w3.org/1999/02/22-rdf-syntax-ns#"
   xmlns:svg="http://www.w3.org/2000/svg"
   xmlns="http://www.w3.org/2000/svg"
   xmlns:sodipodi="http://sodipodi.sourceforge.net/DTD/sodipodi-0.dtd"
   xmlns:inkscape="http://www.inkscape.org/namespaces/inkscape"
   width="100"
   height="100"
   viewBox="0 0 26.458333 26.458334"
   version="1.1"
   id="svg45"
   inkscape:version="0.92.4 (5da689c313, 2019-01-14)"
   sodipodi:docname="logo-70.svg">
  <defs
     id="defs39" />
  <sodipodi:namedview
     id="base"
     pagecolor="#ffffff"
     bordercolor="#666666"
     borderopacity="1.0"
     inkscape:pageopacity="0.0"
     inkscape:pageshadow="2"
     inkscape:zoom="5.6"
     inkscape:cx="45.120802"
     inkscape:cy="62.059709"
     inkscape:document-units="px"
     inkscape:current-layer="g353"
     showgrid="false"
     inkscape:window-width="2560"
     inkscape:window-height="1057"
     inkscape:window-x="-8"
     inkscape:window-y="-8"
     inkscape:window-maximized="1"
     units="px" />
  <metadata
     id="metadata42">
    <rdf:RDF>
      <cc:Work
         rdf:about="">
        <dc:format>image/svg+xml</dc:format>
        <dc:type
           rdf:resource="http://purl.org/dc/dcmitype/StillImage" />
        <dc:title></dc:title>
      </cc:Work>
    </rdf:RDF>
  </metadata>
  <g
     inkscape:label="Layer 1"
     inkscape:groupmode="layer"
     id="layer1"
     transform="translate(0,-270.54165)" />
  <g
     inkscape:groupmode="layer"
     id="layer3"
     inkscape:label="back"
     transform="translate(0,-270.54165)" />
  <g
     inkscape:groupmode="layer"
     id="layer4"
     inkscape:label="logo"
     transform="translate(0,-270.54165)">
    <g
       id="g353"
       transform="matrix(0.76241441,0,0,0.76241441,-11.709827,-36.448811)">
      <g
         id="g22"
         transform="matrix(0.18264921,0,0,0.18264921,12.806905,394.00352)">
        <circle
           style="opacity:1;fill:#9bf4e5;fill-opacity:1;stroke:#0770b4;stroke-width:0.27845007;stroke-opacity:1"
           id="path336"
           cx="109.83479"
           cy="143.06572"
           r="94.860771" />
        <path
           style="opacity:1;fill:#0d76b5;fill-opacity:1;stroke:#808000;stroke-width:0.27110663;stroke-opacity:1"
           d="m 64.043291,203.46491 c -2.323479,-0.31181 -5.680243,-1.58341 -7.547698,-2.85922 -3.541963,-2.4198 -6.330646,-6.62303 -7.300503,-11.00364 l -0.486663,-2.19815 -4.789424,-0.0753 c -4.528783,-0.0712 -4.824326,-0.10867 -5.43083,-0.68761 -0.619118,-0.59099 -0.635318,-0.70527 -0.466185,-3.28856 0.296951,-4.53555 1.267449,-8.9069 2.905048,-13.08504 l 0.88636,-2.26144 -0.947894,-1.96549 c -0.853223,-1.76918 -0.947254,-2.18773 -0.941487,-4.19071 0.0035,-1.22388 0.150677,-2.72764 0.327011,-3.34168 0.803693,-2.79872 3.787086,-5.75277 6.68587,-6.62013 2.052522,-0.61414 4.69124,-0.39691 6.525021,0.53717 l 1.400464,0.71336 1.217398,-0.80405 c 1.653335,-1.092 4.813412,-2.57025 7.079292,-3.31166 1.02882,-0.33663 1.957109,-0.66214 2.062867,-0.72336 0.105757,-0.0612 -0.05672,-0.75613 -0.36107,-1.54423 -1.154358,-2.98923 -0.0847,-6.34361 2.559588,-8.02671 l 1.30777,-0.8324 12.640177,-0.0766 c 12.393126,-0.075 12.650767,-0.0657 13.182162,0.48133 0.298094,0.30681 0.541987,0.85715 0.541987,1.22296 0,1.95428 -0.894212,2.36036 -5.197633,2.36036 h -3.353591 v 2.4754 2.47539 h 7.891745 c 6.200557,0 8.085717,-0.0834 8.796937,-0.38928 1.02804,-0.44211 1.48651,-1.14943 1.47418,-2.27431 -0.0161,-1.46311 -1.1187,-2.2872 -3.06031,-2.2872 -1.5693,0 -2.643469,-0.57202 -3.071518,-1.63566 -0.285264,-0.70885 -0.270103,-0.94099 0.09936,-1.52135 0.55432,-0.87075 1.289782,-1.05348 3.729548,-0.92668 1.61294,0.0839 2.19007,0.24845 3.23906,0.92391 0.70204,0.45206 1.62097,1.31699 2.0421,1.92208 1.42215,2.04348 1.4779,5.32076 0.12165,7.15092 l -0.65058,0.87789 0.56175,0.93639 c 0.92063,1.53458 0.73976,2.9769 -0.79005,6.29974 -2.55185,5.54284 -3.15082,9.93029 -2.16843,15.88378 l 0.28366,1.71902 4.44577,0.002 c 4.72625,0.002 6.27809,0.25417 6.71406,1.09259 0.44416,0.85419 0.30914,1.79799 -0.34812,2.43351 -0.57872,0.55959 -0.87823,0.59803 -4.66066,0.59803 -2.32503,0 -4.1103,0.11341 -4.2025,0.26696 -0.21458,0.35734 0.35071,1.43621 1.85303,3.53655 l 1.24507,1.74067 10.74091,-0.1159 c 10.50098,-0.11331 10.79829,-0.13164 13.31048,-0.82077 3.83342,-1.05157 6.04791,-2.11664 9.03705,-4.34638 4.16676,-3.1082 7.16341,-7.22874 8.92103,-12.26691 1.99817,-5.72768 2.04966,-12.70617 0.14737,-19.97494 -0.65479,-2.50206 -2.38855,-7.06476 -3.10057,-8.15977 -0.2516,-0.38693 -0.72439,-1.28837 -1.05065,-2.00322 -1.42484,-3.12182 -6.4288,-10.54617 -8.64645,-12.82871 -1.65812,-1.70663 -4.13614,-1.24569 -4.64949,0.86484 -0.32025,1.31656 -0.16068,1.63596 2.57253,5.14978 2.13851,2.74928 5.87594,8.62727 7.16626,11.27062 2.20622,4.51971 4.05342,11.77115 4.0278,15.81176 -0.0207,3.25506 -0.96874,7.12475 -2.5906,10.57345 -1.06503,2.26467 -1.58597,2.9907 -3.68026,5.12924 -1.9579,1.99929 -2.86171,2.69807 -4.57741,3.53907 -4.47792,2.19484 -6.49842,2.63354 -12.12965,2.63354 -4.05679,0 -4.23292,-0.0235 -4.7926,-0.63657 -1.08966,-1.19382 -0.6241,-2.74805 0.95866,-3.20047 0.54942,-0.15705 2.50209,-0.28814 4.33927,-0.29131 3.95282,-0.007 6.59563,-0.58491 9.6004,-2.10006 2.31847,-1.16909 5.09175,-3.85673 6.22333,-6.03113 1.08845,-2.09152 2.33852,-5.95027 2.41424,-7.4523 0.0601,-1.19246 0.012,-1.32023 -0.46747,-1.24352 -2.50243,0.4003 -3.28438,0.36763 -4.32896,-0.18087 -1.93239,-1.01468 -2.39459,-1.82347 -4.38555,-7.67409 -0.85997,-2.52711 -0.88935,-2.78627 -0.4855,-4.28316 0.43412,-1.60911 1.91359,-3.10583 3.75196,-3.79575 l 1.57936,-0.59271 -0.47069,-0.75937 c -0.25887,-0.41765 -0.81838,-1.35977 -1.24337,-2.09359 -1.35598,-2.34141 -2.8889,-4.57127 -4.76374,-6.92958 -2.22632,-2.8004 -2.61845,-3.55342 -2.80161,-5.37999 l -0.14284,-1.42444 -1.36334,-0.33333 c -1.78324,-0.43599 -3.07289,-1.52109 -4.00614,-3.37075 -0.6541,-1.29638 -0.73983,-1.7273 -0.63431,-3.18876 0.20988,-2.9072 1.29541,-4.28057 5.94721,-7.52415 4.22723,-2.94754 7.04548,-5.09187 7.04897,-5.36336 0.002,-0.15127 -0.84667,-1.37232 -1.8858,-2.71344 l -1.88933,-2.438408 -0.76691,1.382098 c -1.09272,1.96926 -2.87886,3.09083 -4.89879,3.0761 -1.78345,-0.013 -4.30002,-1.87022 -4.95422,-3.65619 -0.38107,-1.040331 -0.38054,-14.190801 5.3e-4,-15.229122 0.69936,-1.904963 2.91283,-3.387192 5.0583,-3.387192 1.81828,0 2.91191,0.518244 4.09454,1.940305 1.2768,1.535299 1.51596,2.503979 1.51778,6.147525 0.001,2.852489 0.0376,3.047082 0.73636,3.969835 0.40418,0.53367 1.21588,1.60573 1.80377,2.382352 0.58789,0.776626 1.89881,2.486694 2.91314,3.800156 l 1.84424,2.388111 8.44395,0.006 c 9.30883,0.007 9.65659,0.0621 11.35405,1.81114 1.46436,1.50883 1.49914,1.78131 1.49914,11.7454 0,9.07858 -0.007,9.19287 -0.62178,10.39174 -0.34197,0.6667 -1.13352,1.5835 -1.75899,2.03732 l -1.13721,0.82514 -4.92166,0.0857 c -2.70691,0.0472 -4.92121,0.17095 -4.92065,0.27505 5.2e-4,0.10409 0.22878,0.57374 0.50718,1.04365 l 0.50619,0.8544 2.00669,-0.13256 c 7.46323,-0.49297 13.65371,6.88085 12.11461,14.43037 -0.26257,1.28786 -0.74773,2.537 -1.38881,3.57557 -1.05418,1.70786 -3.58272,4.35668 -4.4199,4.63017 -0.44355,0.1449 -0.5085,0.44479 -0.5085,2.34793 v 2.18182 h 1.17363 c 1.45795,0 5.97884,0.91838 7.94052,1.61303 3.14043,1.11208 5.98484,2.98095 8.28652,5.44454 4.88132,5.22468 6.61174,10.09 6.42067,18.05267 -0.0311,1.29447 -0.1615,1.72087 -0.69417,2.26912 -0.56036,0.57676 -0.90617,0.67511 -2.37386,0.67511 -1.88151,0 -2.03546,0.15579 -2.04386,2.06835 -0.006,1.32438 -1.03697,4.79955 -1.94363,6.55039 -0.45829,0.88498 -1.80261,2.64066 -2.98737,3.90151 -1.78369,1.89823 -2.54475,2.48408 -4.42555,3.40667 -2.94765,1.44592 -5.20916,2.01687 -8.01677,2.02395 -3.06353,0.008 -5.01419,-0.44918 -7.92442,-1.85608 -2.64726,-1.27978 -4.17806,-2.56535 -6.25747,-5.25504 -2.03054,-2.62646 -3.09705,-5.45003 -3.5916,-9.50861 l -0.1562,-1.28176 -1.52377,-0.10767 c -0.95943,-0.0678 -2.21656,0.0835 -3.39434,0.40847 -1.02882,0.28388 -2.41172,0.65284 -3.07311,0.81992 -0.80707,0.20388 -9.10385,0.35539 -25.22947,0.46072 l -24.026964,0.15696 -0.347109,1.7518 c -0.432555,2.18303 -1.616356,4.8179 -3.174033,7.06465 -3.619032,5.22 -10.157946,8.09361 -16.484979,7.24455 z m 4.940756,-4.3685 c 4.239555,-0.96481 6.984816,-2.96855 9.081095,-6.62818 1.159805,-2.02475 1.979191,-4.57276 1.597005,-4.96612 -0.138599,-0.14266 -1.246648,-0.22311 -2.462329,-0.17879 l -2.210337,0.0806 -0.519343,1.43511 c -0.592535,1.63736 -2.222307,3.50023 -4.000768,4.57297 -2.764983,1.6678 -6.307438,1.50398 -8.906848,-0.41187 -1.501601,-1.10673 -3.440783,-3.68848 -3.763022,-5.00994 -0.172718,-0.7083 -0.223533,-0.72379 -2.374408,-0.72379 -1.20885,0 -2.261489,0.0654 -2.339198,0.14542 -0.179168,0.1844 0.407497,2.75386 0.877381,3.84271 0.645378,1.49552 2.349852,3.92121 3.353913,4.77305 1.62566,1.37921 3.961336,2.51135 6.304539,3.0559 2.787287,0.64776 2.575073,0.64726 5.36232,0.013 z m 93.449403,-0.18595 c 0.95533,-0.24146 2.42328,-0.7933 3.26209,-1.22631 1.8615,-0.96093 4.43932,-3.62324 5.38143,-5.55781 0.79854,-1.63974 1.51106,-4.28794 1.51106,-5.61607 v -0.91557 l -2.33263,0.0795 -2.33264,0.0794 -0.29664,1.37792 c -0.64647,3.00303 -2.38164,5.26213 -5.08882,6.62538 -3.63028,1.82809 -8.30446,0.37722 -10.68792,-3.31755 -0.59878,-0.92822 -1.05581,-2.07435 -1.25298,-3.14223 l -0.31039,-1.68104 h -2.3439 -2.34388 v 0.99171 c 0,1.50621 0.75606,4.20993 1.60743,5.74819 1.08844,1.96663 3.51593,4.41444 5.28853,5.3328 0.83691,0.43359 2.42354,1.00127 3.52584,1.26151 1.1023,0.26025 2.12444,0.51839 2.27142,0.57365 0.39396,0.14814 2.16839,-0.11469 4.142,-0.61353 z m -94.11701,-9.00661 c 1.010299,-0.54325 2.285168,-1.98365 2.071148,-2.34008 -0.243446,-0.40542 -7.799045,-0.40729 -8.04242,-0.002 -0.211534,0.35229 0.764254,1.50053 1.882809,2.21556 0.964751,0.61671 3.056445,0.68144 4.088463,0.12651 z m 92.72734,0.002 c 0.39689,-0.21254 0.98643,-0.67837 1.31011,-1.03517 0.57295,-0.63166 1.41569,-2.39982 1.41569,-2.97034 0,-0.18432 -1.63995,-0.28388 -4.67645,-0.28388 -3.03651,0 -4.67645,0.0995 -4.67645,0.28388 0,0.50044 0.80697,2.2914 1.27951,2.83968 1.28494,1.49087 3.74078,2.02624 5.34759,1.16576 z M 50.699865,181.06887 c 0.989935,-6.06379 4.219686,-11.80201 9.248896,-16.43232 3.705407,-3.41149 6.965911,-5.10186 12.696826,-6.58249 1.7564,-0.45378 3.119684,-0.59037 6.01258,-0.60242 3.286695,-0.0137 3.952162,0.0633 5.478129,0.63391 3.040234,1.13679 4.361967,1.97434 6.283456,3.98167 5.306633,5.5437 5.768702,13.16041 1.178314,19.42324 l -1.108775,1.51274 7.018104,0.0734 c 3.859955,0.0403 7.074605,0.0152 7.143645,-0.0558 0.069,-0.0711 -0.12891,-0.53729 -0.43992,-1.03606 -4.854537,-7.78546 -5.323035,-18.62086 -1.18409,-27.38552 0.66227,-1.40241 1.13955,-2.72307 1.06061,-2.9348 -0.2497,-0.66974 -2.56782,-0.75056 -18.080763,-0.63041 -16.188775,0.1254 -15.427797,0.064 -20.595478,1.66256 -9.918664,3.06827 -18.244112,11.2966 -21.465521,21.21513 -1.048346,3.22779 -2.132063,8.51786 -1.848392,9.02274 0.06375,0.11346 1.949259,0.20629 4.190023,0.20629 h 4.074121 z m 31.932024,1.66195 c 3.282893,-0.71588 6.160063,-3.31432 7.390161,-6.67424 0.81194,-2.21774 0.669619,-5.86361 -0.31397,-8.04327 -0.931365,-2.06392 -3.129876,-4.28063 -5.290808,-5.3346 -1.739589,-0.84845 -1.778746,-0.85386 -6.159945,-0.8504 -4.155732,0.003 -4.539808,0.0492 -6.680643,0.79872 -2.544983,0.89101 -5.474788,2.32597 -7.081483,3.46836 -2.831279,2.0131 -6.157012,6.11676 -8.013998,9.88856 -0.655515,1.33144 -1.591778,4.40391 -1.866553,6.12535 l -0.164634,1.03143 13.17298,-0.005 c 10.497725,-0.004 13.545828,-0.0861 15.008893,-0.40512 z m 95.028791,-2.82186 c -0.0121,-4.12232 -1.5809,-8.13416 -4.52195,-11.56381 -3.31392,-3.86445 -7.72046,-6.0431 -12.70948,-6.28374 -1.46974,-0.0709 -2.7925,-0.0293 -2.93948,0.0923 -0.14697,0.12165 -0.4705,1.0415 -0.71893,2.04409 -0.66071,2.66628 -1.94883,5.95609 -3.09805,7.91231 -1.58694,2.70129 -4.27758,6.09653 -5.9798,7.54571 -0.85817,0.73061 -1.56031,1.44228 -1.56031,1.58151 0,0.15128 6.34368,0.25312 15.76632,0.25312 h 15.76632 l -0.005,-1.5815 z M 45.226191,162.48847 c 0.268026,-0.467 1.626813,-2.07101 3.019528,-3.56448 1.392714,-1.49347 2.454895,-2.84415 2.360398,-3.00152 -0.0945,-0.15737 -0.495407,-0.28544 -0.890913,-0.28459 -2.527713,0.005 -5.116873,2.10215 -5.602071,4.53669 -0.311218,1.56158 -0.152825,3.163 0.312848,3.163 0.172091,0 0.532185,-0.38209 0.80021,-0.8491 z m 97.962259,-10.15015 1.04285,-0.5476 -0.35058,-1.17143 c -0.19281,-0.64429 -0.69405,-2.33091 -1.11385,-3.74805 -0.4198,-1.41714 -0.89734,-2.62958 -1.0612,-2.69429 -0.16386,-0.0647 -0.88828,0.12014 -1.60981,0.41079 -1.68946,0.68058 -1.74028,1.10671 -0.53922,4.52175 1.47844,4.20374 1.5886,4.30168 3.63181,3.22883 z m 15.43683,-5.15957 c 1.27876,-1.58859 1.67083,-2.6967 1.66888,-4.71679 -0.002,-2.37658 -0.41228,-3.43777 -2.01767,-5.2225 -1.49036,-1.65686 -2.70331,-2.35358 -4.65735,-2.67518 -1.38099,-0.2273 -1.38286,0.0149 -0.0217,2.81743 1.15239,2.3727 2.45622,6.22456 3.11293,9.19634 0.2318,1.04894 0.52086,1.90716 0.64237,1.90716 0.1215,0 0.69417,-0.58791 1.27258,-1.30646 z m -84.165515,-2.88796 0.07721,-2.40664 h -2.245786 c -1.832636,0 -2.369374,0.10002 -2.917586,0.54391 -0.791977,0.64119 -1.050684,1.71047 -0.679204,2.80728 0.40673,1.20089 1.368146,1.59903 3.683961,1.52561 l 2.004192,-0.0635 z m 8.073175,0.0687 v -2.4754 h -2.004192 -2.004193 v 2.4754 2.47539 h 2.004193 2.004192 z m 68.14257,-29.42969 v -9.35149 h -3.08249 c -3.58657,0 -3.51305,-0.21868 -1.03594,3.08114 1.59675,2.12708 1.78182,2.97922 0.86515,3.98351 -1.29252,1.41606 -2.68545,0.62807 -5.1713,-2.92549 -0.83852,-1.19868 -1.67063,-2.23709 -1.84912,-2.30759 -0.35415,-0.13988 -5.15408,3.29246 -5.58295,3.99226 -0.20133,0.3285 -0.0465,0.69775 0.64776,1.54472 0.56277,0.68659 1.06603,1.72468 1.3135,2.70938 0.39407,1.56798 0.421,1.59981 1.51614,1.79223 2.21795,0.38972 3.82837,1.65229 6.14034,4.81404 l 1.47619,2.01878 h 2.38136 2.38136 z m 7.26087,8.89629 c 0.45284,-0.42181 0.48868,-1.06338 0.48868,-8.74883 0,-6.47348 -0.0781,-8.4036 -0.35598,-8.79471 -0.23555,-0.33156 -0.82315,-0.54727 -1.73697,-0.63765 l -1.38098,-0.13653 v 9.38648 9.38648 h 1.24827 c 0.78654,0 1.42905,-0.16838 1.73698,-0.4552 z m -25.86909,-5.06563 c 0.8974,-0.72656 0.96782,-2.31122 0.15025,-3.381 -1.43365,-1.87591 -4.20863,0.0865 -3.4533,2.44215 0.4731,1.47544 2.07713,1.93136 3.30305,0.93885 z m -2.79746,-20.436557 c 0.2138,-0.265141 0.28354,-2.258482 0.23315,-6.663355 l -0.0719,-6.28504 -0.74897,-0.27094 c -0.50847,-0.183938 -0.8946,-0.176453 -1.20251,0.02331 -0.4013,0.260356 -0.46183,1.015534 -0.52545,6.555979 -0.0774,6.739865 -0.0269,7.018358 1.27442,7.018358 0.40493,0 0.87351,-0.170243 1.04128,-0.378317 z"
           id="path331"
           inkscape:connector-curvature="0" />
      </g>
    </g>
  </g>
</svg>
